<svg xmlns="http://www.w3.org/2000/svg" width="64" height="64" viewBox="0 0 64 64">
  <defs>
    <linearGradient id="bg" x1="0" y1="0" x2="0" y2="1">
      <stop offset="0" stop-color="#3b82f6"/>
      <stop offset="1" stop-color="#4f46e5"/>
    </linearGradient>
  </defs>
  <rect width="64" height="64" rx="15" fill="url(#bg)"/>
  <!-- soft shadow: full book outline, offset down -->
  <path d="M11 21C16 18 26 18 32 23C38 18 48 18 53 21V44C48 41 38 41 32 46C26 41 16 41 11 44Z"
        fill="#1e1b4b" opacity="0.25" transform="translate(0 2.5)"/>
  <!-- left page -->
  <path d="M32 23C26 18 16 18 11 21V44C16 41 26 41 32 46Z" fill="#ffffff"/>
  <!-- right page -->
  <path d="M32 23C38 18 48 18 53 21V44C48 41 38 41 32 46Z" fill="#e0e7ff"/>
  <!-- spine -->
  <path d="M32 23V46" stroke="#a5b4fc" stroke-width="1.6" stroke-linecap="round"/>
  <!-- text lines -->
  <g stroke="#93c5fd" stroke-width="2.1" stroke-linecap="round">
    <path d="M15 26.5L28 27.8"/>
    <path d="M15 31.5L28 32.8"/>
    <path d="M15 36.5L24 37.6"/>
    <path d="M36 27.8L49 26.5"/>
    <path d="M36 32.8L49 31.5"/>
    <path d="M40 37.6L49 36.5"/>
  </g>
</svg>
